<?xml version="1.0" encoding="UTF-8" standalone="no"?>
<!-- Created with Inkscape (http://www.inkscape.org/) -->
<svg
   xmlns:svg="http://www.w3.org/2000/svg"
   xmlns="http://www.w3.org/2000/svg"
   version="1.0"
   width="400"
   height="165"
   id="svg2"
   xml:space="preserve"><defs
     id="defs5" /><g
     transform="matrix(0,1.25,1.25,0,-544.15141,-101.175)"
     id="g11"><g
       transform="matrix(1.5335769,0,0,1.5335769,-35.187718,-387.28847)"
       id="g2508"><g
   id="g2429"><path
     d="M 96.36,650.451 L 119.04,658.851 L 122.7,661.551 L 122.04,662.87 L 125.4,667.431 L 126.06,680.63 L 122.88,682.191 L 121.74,684.711 L 116.34,693.411 L 105.6,691.37 L 92.82,690.051 L 88.32,682.311 L 87.66,679.311 L 84.3,671.57 L 87.3,663.051 L 89.34,662.391 L 93.84,650.63 L 96.36,650.451"
     id="path31"
     style="fill:#c70000;fill-opacity:1;fill-rule:nonzero;stroke:none" /><path
     d="M 93.84,541.13 L 93.84,564.11 L 101.04,564.11 L 101.04,549.651 L 104.1,549.651 L 104.1,562.73 L 110.64,562.73 L 110.64,549.651 L 114.18,549.651 L 114.18,564.411 L 121.02,564.411 L 121.02,541.13 L 93.84,541.13 z M 93.84,566.451 L 93.84,578.87 L 110.28,582.711 L 93.84,586.73 L 93.84,598.971 L 121.02,598.971 L 121.02,590.57 L 103.56,590.57 L 121.02,586.07 L 121.02,579.531 L 103.26,574.49 L 121.02,574.49 L 121.02,566.451 L 93.84,566.451 z M 93.84,631.37 L 93.84,639.591 L 121.02,649.61 L 121.02,640.73 L 117.54,639.711 L 117.54,630.651 L 121.02,629.51 L 121.02,621.11 L 93.84,631.37 z M 102.9,635.211 L 111.3,637.911 L 111.3,633.051 L 102.9,635.211 z M 93.84,601.13 L 93.84,616.25 L 94.02,617.451 L 94.2,618.591 L 94.5,619.61 L 95.04,620.63 L 95.34,621.471 C 97.436,624.653 101.384,626.249 105.12,625.49 C 112.602,624.164 113.681,616.231 113.16,609.891 L 121.02,609.891 L 121.02,601.13 L 93.84,601.13 z M 101.04,609.891 L 106.44,609.891 C 106.14,612.246 107.706,617.571 103.56,617.451 L 102.72,617.271 L 102.24,617.091 L 101.88,616.911 L 101.58,616.61 L 101.22,616.07 L 101.04,615.411 L 101.04,609.891"
     id="path33"
     style="fill:#000000;fill-opacity:1;fill-rule:evenodd;stroke:none" /><path
     d="M 80.94,673.431 L 86.82,662.031 L 93,670.431 L 86.82,681.651 L 80.94,673.431"
     id="path35"
     style="fill:#ff0000;fill-opacity:1;fill-rule:nonzero;stroke:none" /><path
     d="M 93,648.291 L 104.1,650.451 L 111.12,658.37 L 100.08,656.151 L 93,648.291"
     id="path37"
     style="fill:#c70000;fill-opacity:1;fill-rule:nonzero;stroke:none" /><path
     d="M 86.82,660.171 L 93,648.291 L 100.08,656.151 L 93.36,668.391 L 86.82,660.171"
     id="path39"
     style="fill:#ff0000;fill-opacity:1;fill-rule:nonzero;stroke:none" /><path
     d="M 106.08,651.951 L 115.98,654.171 L 123.24,661.551 L 113.34,659.69 L 106.08,651.951"
     id="path41"
     style="fill:#c70000;fill-opacity:1;fill-rule:nonzero;stroke:none" /><path
     d="M 117.36,693.891 L 107.28,693.411 L 113.64,682.49 L 124.08,683.331 L 117.36,693.891"
     id="path43"
     style="fill:#9a0000;fill-opacity:1;fill-rule:nonzero;stroke:none" /><path
     d="M 114.66,661.19 L 124.74,663.051 L 132.48,671.271 L 122.4,669.591 L 114.66,661.19"
     id="path45"
     style="fill:#c70000;fill-opacity:1;fill-rule:nonzero;stroke:none" /><path
     d="M 125.4,682.49 L 115.14,681.471 L 122.4,669.591 L 132.48,671.271 L 125.4,682.49"
     id="path47"
     style="fill:#9a0000;fill-opacity:1;fill-rule:nonzero;stroke:none" /><path
     d="M 114.18,662.031 L 112.8,660.531 L 113.34,659.69 L 123.24,661.551 L 122.7,662.69 L 114.66,661.19 L 114.18,662.031"
     id="path49"
     style="fill:#9a0000;fill-opacity:1;fill-rule:nonzero;stroke:none" /><path
     d="M 110.1,659.87 L 111.12,658.37 L 105.96,652.49 L 106.08,651.951 L 113.34,659.69 L 112.8,660.531 L 112.62,660.351 L 110.1,659.87"
     id="path51"
     style="fill:#ff0000;fill-opacity:1;fill-rule:nonzero;stroke:none" /><path
     d="M 95.88,668.75 L 94.86,670.61 L 93,670.431 L 86.82,662.031 L 88.62,662.391 L 93.36,668.391 L 95.88,668.75"
     id="path53"
     style="fill:#c70000;fill-opacity:1;fill-rule:nonzero;stroke:none" /><path
     d="M 95.88,668.75 L 93.36,668.391 L 100.08,656.151 L 111.12,658.37 L 110.1,659.87 L 101.58,658.37 L 95.88,668.75"
     id="path55"
     style="fill:#9a0000;fill-opacity:1;fill-rule:nonzero;stroke:none" /><path
     d="M 109.62,680.51 L 111.3,682.49 L 100.08,681.471 L 93.18,672.411 L 96.72,672.951 L 101.88,679.49 L 109.62,680.51"
     id="path57"
     style="fill:#c70000;fill-opacity:1;fill-rule:nonzero;stroke:none" /><path
     d="M 120.36,668.931 L 114.18,662.031 L 114.66,661.19 L 122.4,669.591 L 115.14,681.471 L 113.82,679.791 L 120.36,668.931"
     id="path59"
     style="fill:#ff0000;fill-opacity:1;fill-rule:nonzero;stroke:none" /><path
     d="M 113.82,679.791 L 115.14,681.471 L 123.24,682.311 L 124.08,683.331 L 113.64,682.49 L 112.32,680.63 L 113.34,680.811 L 113.82,679.791"
     id="path61"
     style="fill:#c70000;fill-opacity:1;fill-rule:nonzero;stroke:none" /><path
     d="M 86.94,683.99 L 93.18,672.411 L 100.08,681.471 L 93.48,693.411 L 86.94,683.99"
     id="path63"
     style="fill:#ff0000;fill-opacity:1;fill-rule:nonzero;stroke:none" /><path
     d="M 93.18,672.411 L 88.14,681.831 L 86.82,681.651 L 93,670.431 L 94.86,670.61 L 96.72,672.951 L 93.18,672.411"
     id="path65"
     style="fill:#9a0000;fill-opacity:1;fill-rule:nonzero;stroke:none" /><path
     d="M 104.76,693.891 L 93.48,693.411 L 100.08,681.471 L 111.3,682.49 L 104.76,693.891"
     id="path67"
     style="fill:#9a0000;fill-opacity:1;fill-rule:nonzero;stroke:none" /><path
     d="M 111.3,682.49 L 109.62,680.51 L 112.32,680.63 L 113.64,682.49 L 107.28,693.411 L 106.08,691.73 L 111.3,682.49"
     id="path69"
     style="fill:#ff0000;fill-opacity:1;fill-rule:nonzero;stroke:none" /><path
     d="M 101.58,658.37 L 112.62,660.351 L 120.36,668.931 L 109.14,667.07 L 101.58,658.37"
     id="path71"
     style="fill:#c70000;fill-opacity:1;fill-rule:nonzero;stroke:none" /><path
     d="M 113.34,680.811 L 101.88,679.49 L 109.14,667.07 L 120.36,668.931 L 113.34,680.811"
     id="path73"
     style="fill:#9a0000;fill-opacity:1;fill-rule:nonzero;stroke:none" /><path
     d="M 94.86,670.61 L 101.58,658.37 L 109.14,667.07 L 101.88,679.49 L 94.86,670.61 z M 105.24,670.791 L 103.44,668.57 L 105.24,665.391 L 103.08,662.87 L 101.4,666.051 L 99.54,664.07 L 97.86,667.25 L 99.54,669.231 L 97.86,672.11 L 99.9,674.63 L 101.58,671.75 L 103.44,674.091 L 105.24,670.791"
     id="path75"
     style="fill:#ff0000;fill-opacity:1;fill-rule:nonzero;stroke:none" /><path
     d="M 99.9,674.63 L 97.86,672.11 L 99.54,669.231 L 97.86,667.25 L 99.54,664.07 L 101.4,666.051 L 103.08,662.87 L 105.24,665.391 L 103.44,668.57 L 105.24,670.791 L 103.44,674.091 L 101.58,671.75 L 99.9,674.63"
     id="path77"
     style="fill:#ffffff;fill-opacity:1;fill-rule:nonzero;stroke:none" /><path
     d="M 0.84722189,0 L 0.84722189,-8.1712322 L 2.4747797,-8.1712322 L 4.4088981,-2.3855985 C 4.5872561,-1.8467932 4.7173119,-1.4436201 4.7990661,-1.1760778 C 4.8919584,-1.4733471 5.0368777,-1.9099632 5.2338247,-2.4859274 L 7.1902384,-8.1712322 L 8.6450076,-8.1712322 L 8.6450076,0 L 7.6027017,0 L 7.6027017,-6.8390872 L 5.2282509,0 L 4.2528309,0 L 1.8895278,-6.9561376 L 1.8895278,0 L 0.84722189,0 z M 14.994972,-0.7301715 C 14.623379,-0.41432082 14.265725,-0.19136791 13.92201,-0.061312111 C 13.578287,0.068743813 13.209486,0.13377174 12.815605,0.13377188 C 12.165323,0.13377174 11.665537,-0.025082202 11.316245,-0.34279044 C 10.966951,-0.66049799 10.792305,-1.0664581 10.792305,-1.5606719 C 10.792305,-1.8505091 10.858262,-2.1152657 10.990176,-2.3549424 C 11.122089,-2.5946145 11.294878,-2.7869113 11.508542,-2.9318337 C 11.722204,-3.0767501 11.962807,-3.1863686 12.230353,-3.2606895 C 12.427293,-3.3127086 12.724563,-3.362873 13.122165,-3.4111829 C 13.932225,-3.5077924 14.528624,-3.6229847 14.911364,-3.7567602 C 14.915076,-3.8942441 14.916933,-3.9815673 14.916938,-4.0187302 C 14.916933,-4.4274731 14.822178,-4.715454 14.632673,-4.8826735 C 14.376273,-5.1093374 13.995395,-5.2226718 13.490038,-5.2226771 C 13.018118,-5.2226718 12.669754,-5.1399935 12.444945,-4.9746417 C 12.220132,-4.80928 12.053847,-4.5166543 11.946088,-4.0967638 L 10.965094,-4.2305356 C 11.054274,-4.650426 11.201052,-4.9895003 11.405426,-5.2477593 C 11.609799,-5.5060078 11.905211,-5.7048075 12.291665,-5.8441589 C 12.678115,-5.9834986 13.125878,-6.0531714 13.634957,-6.0531775 C 14.140314,-6.0531714 14.550919,-5.9937173 14.866774,-5.874815 C 15.182619,-5.7559009 15.414862,-5.6063366 15.563502,-5.4261218 C 15.712132,-5.2458961 15.816177,-5.0182983 15.875636,-4.7433278 C 15.909074,-4.5723925 15.925795,-4.2639743 15.925801,-3.8180723 L 15.925801,-2.4803536 C 15.925795,-1.5476648 15.947162,-0.95776853 15.9899,-0.7106631 C 16.032627,-0.46355625 16.117163,-0.22666879 16.243509,0 L 15.195629,0 C 15.09158,-0.20808938 15.024694,-0.45147964 14.994972,-0.7301715 L 14.994972,-0.7301715 z M 14.911364,-2.9708505 C 14.547203,-2.8222122 14.000969,-2.6958722 13.272659,-2.5918301 C 12.860193,-2.5323734 12.568496,-2.4654876 12.397568,-2.3911723 C 12.226635,-2.3168523 12.094721,-2.2081627 12.001826,-2.0651034 C 11.908927,-1.9220398 11.862479,-1.7631859 11.86248,-1.588541 C 11.862479,-1.320996 11.963736,-1.0980431 12.166254,-0.91968166 C 12.368768,-0.74131841 12.665109,-0.65213725 13.055279,-0.6521379 C 13.441728,-0.65213725 13.785447,-0.73667356 14.086438,-0.90574709 C 14.38742,-1.0748188 14.608515,-1.3061324 14.749723,-1.5996887 C 14.857479,-1.8263559 14.91136,-2.1607853 14.911364,-2.6029778 L 14.911364,-2.9708505 z M 20.040668,-0.89738635 L 20.185588,-0.011147656 C 19.903178,0.048306463 19.650498,0.078033517 19.427547,0.078033595 C 19.063388,0.078033517 18.780981,0.02043735 18.580325,-0.09475508 C 18.379666,-0.20994732 18.238462,-0.3613695 18.156714,-0.54902208 C 18.074964,-0.73667356 18.034089,-1.131486 18.03409,-1.7334606 L 18.03409,-5.1390696 L 17.298345,-5.1390696 L 17.298345,-5.9194056 L 18.03409,-5.9194056 L 18.03409,-7.3853224 L 19.031805,-7.9872959 L 19.031805,-5.9194056 L 20.040668,-5.9194056 L 20.040668,-5.1390696 L 19.031805,-5.1390696 L 19.031805,-1.6777223 C 19.031803,-1.3915977 19.049454,-1.2076616 19.084757,-1.1259133 C 19.120055,-1.0441628 19.177652,-0.97913485 19.257545,-0.93082932 C 19.337435,-0.88252192 19.451698,-0.85836869 19.600336,-0.85836955 C 19.71181,-0.85836869 19.858587,-0.87137428 20.040668,-0.89738635 L 20.040668,-0.89738635 z M 26.104262,-1.9062493 L 27.140994,-1.7780512 C 26.977489,-1.1723607 26.674645,-0.70230166 26.23246,-0.36787266 C 25.790265,-0.033442936 25.225451,0.13377174 24.538016,0.13377188 C 23.672212,0.13377174 22.985703,-0.13284277 22.478486,-0.66607247 C 21.971267,-1.1993008 21.717658,-1.9471221 21.717659,-2.9095383 C 21.717658,-3.9053917 21.974054,-4.6782952 22.486847,-5.2282509 C 22.999637,-5.7781962 23.66478,-6.0531714 24.482278,-6.0531775 C 25.273757,-6.0531714 25.920321,-5.78377 26.42197,-5.2449724 C 26.923609,-4.7061643 27.174431,-3.9481244 27.174437,-2.9708505 C 27.174431,-2.9113934 27.172573,-2.8222122 27.168863,-2.7033067 L 22.754391,-2.7033067 C 22.791548,-2.0530247 22.975484,-1.5550965 23.3062,-1.2095207 C 23.636911,-0.86394251 24.049374,-0.69115401 24.54359,-0.6911547 C 24.911459,-0.69115401 25.225451,-0.78776694 25.485567,-0.98099377 C 25.745674,-1.1742186 25.951906,-1.4826368 26.104262,-1.9062493 L 26.104262,-1.9062493 z M 22.810129,-3.5282333 L 26.115409,-3.5282333 C 26.070814,-4.0261579 25.944474,-4.399604 25.736389,-4.6485728 C 25.416819,-5.0350198 25.002498,-5.2282457 24.493425,-5.2282509 C 24.032653,-5.2282457 23.645272,-5.0740366 23.331282,-4.7656231 C 23.017288,-4.4572002 22.84357,-4.0447373 22.810129,-3.5282333 L 22.810129,-3.5282333 z M 28.758787,0 L 28.758787,-5.9194056 L 29.661747,-5.9194056 L 29.661747,-5.0220192 C 29.89213,-5.4419089 30.104864,-5.7187421 30.29995,-5.8525197 C 30.495032,-5.9862855 30.709624,-6.0531714 30.943727,-6.0531775 C 31.28187,-6.0531714 31.625589,-5.9454108 31.974886,-5.7298954 L 31.629308,-4.7990661 C 31.384056,-4.9439807 31.138808,-5.0164404 30.893563,-5.0164454 C 30.674323,-5.0164404 30.477381,-4.9504835 30.302737,-4.8185745 C 30.128088,-4.6866559 30.003606,-4.5036487 29.929291,-4.2695524 C 29.817812,-3.9128235 29.762074,-3.5226559 29.762076,-3.0990485 L 29.762076,0 L 28.758787,0 z M 33.634959,-7.0174498 L 33.634959,-8.1712322 L 34.638249,-8.1712322 L 34.638249,-7.0174498 L 33.634959,-7.0174498 z M 33.634959,0 L 33.634959,-5.9194056 L 34.638249,-5.9194056 L 34.638249,0 L 33.634959,0 z M 40.670039,-0.7301715 C 40.298446,-0.41432082 39.940792,-0.19136791 39.597077,-0.061312111 C 39.253354,0.068743813 38.884553,0.13377174 38.490672,0.13377188 C 37.84039,0.13377174 37.340604,-0.025082202 36.991312,-0.34279044 C 36.642018,-0.66049799 36.467372,-1.0664581 36.467372,-1.5606719 C 36.467372,-1.8505091 36.533329,-2.1152657 36.665243,-2.3549424 C 36.797156,-2.5946145 36.969945,-2.7869113 37.183609,-2.9318337 C 37.397271,-3.0767501 37.637874,-3.1863686 37.90542,-3.2606895 C 38.10236,-3.3127086 38.39963,-3.362873 38.797232,-3.4111829 C 39.607292,-3.5077924 40.203691,-3.6229847 40.586431,-3.7567602 C 40.590142,-3.8942441 40.592,-3.9815673 40.592005,-4.0187302 C 40.592,-4.4274731 40.497245,-4.715454 40.30774,-4.8826735 C 40.05134,-5.1093374 39.670462,-5.2226718 39.165105,-5.2226771 C 38.693185,-5.2226718 38.344821,-5.1399935 38.120012,-4.9746417 C 37.895199,-4.80928 37.728913,-4.5166543 37.621154,-4.0967638 L 36.640161,-4.2305356 C 36.729341,-4.650426 36.876119,-4.9895003 37.080493,-5.2477593 C 37.284866,-5.5060078 37.580278,-5.7048075 37.966732,-5.8441589 C 38.353182,-5.9834986 38.800945,-6.0531714 39.310024,-6.0531775 C 39.815381,-6.0531714 40.225986,-5.9937173 40.54184,-5.874815 C 40.857686,-5.7559009 41.089929,-5.6063366 41.238569,-5.4261218 C 41.387199,-5.2458961 41.491244,-5.0182983 41.550703,-4.7433278 C 41.584141,-4.5723925 41.600862,-4.2639743 41.600868,-3.8180723 L 41.600868,-2.4803536 C 41.600862,-1.5476648 41.622229,-0.95776853 41.664967,-0.7106631 C 41.707694,-0.46355625 41.79223,-0.22666879 41.918576,0 L 40.870696,0 C 40.766647,-0.20808938 40.699761,-0.45147964 40.670039,-0.7301715 L 40.670039,-0.7301715 z M 40.586431,-2.9708505 C 40.22227,-2.8222122 39.676036,-2.6958722 38.947726,-2.5918301 C 38.53526,-2.5323734 38.243563,-2.4654876 38.072635,-2.3911723 C 37.901702,-2.3168523 37.769788,-2.2081627 37.676893,-2.0651034 C 37.583994,-1.9220398 37.537546,-1.7631859 37.537547,-1.588541 C 37.537546,-1.320996 37.638803,-1.0980431 37.841321,-0.91968166 C 38.043834,-0.74131841 38.340176,-0.65213725 38.730346,-0.6521379 C 39.116795,-0.65213725 39.460514,-0.73667356 39.761505,-0.90574709 C 40.062487,-1.0748188 40.283582,-1.3061324 40.42479,-1.5996887 C 40.532546,-1.8263559 40.586427,-2.1607853 40.586431,-2.6029778 L 40.586431,-2.9708505 z M 43.502926,0 L 43.502926,-8.1712322 L 44.506215,-8.1712322 L 44.506215,0 L 43.502926,0 z M 46.301896,-1.7669036 L 47.294037,-1.9229707 C 47.349774,-1.5253695 47.504912,-1.2206672 47.759452,-1.0088629 C 48.013988,-0.79705664 48.369784,-0.69115401 48.82684,-0.6911547 C 49.287606,-0.69115401 49.629468,-0.78498003 49.852424,-0.97263303 C 50.075373,-1.1602841 50.18685,-1.3804501 50.186854,-1.6331317 C 50.18685,-1.8597988 50.088379,-2.0381612 49.891441,-2.1682192 C 49.75395,-2.2573982 49.412089,-2.3707326 48.865857,-2.5082227 C 48.130109,-2.6940143 47.620105,-2.8547262 47.335841,-2.9903589 C 47.051575,-3.1259855 46.836053,-3.3136376 46.689277,-3.5533155 C 46.542499,-3.7929863 46.46911,-4.0577429 46.469111,-4.347586 C 46.46911,-4.6114093 46.529493,-4.8557285 46.65026,-5.0805444 C 46.771026,-5.3053502 46.935453,-5.4920733 47.143544,-5.6407142 C 47.29961,-5.7559009 47.512344,-5.8534428 47.781747,-5.9333402 C 48.051147,-6.0132257 48.340057,-6.0531714 48.648477,-6.0531775 C 49.11296,-6.0531714 49.520778,-5.9862855 49.871933,-5.8525197 C 50.22308,-5.7187421 50.482262,-5.5375928 50.649482,-5.3090714 C 50.816692,-5.0805394 50.931884,-4.7749081 50.995059,-4.3921767 L 50.014065,-4.2584048 C 49.969471,-4.5631028 49.840344,-4.8009193 49.626684,-4.9718548 C 49.413017,-5.1427804 49.111102,-5.2282457 48.720937,-5.2282509 C 48.260165,-5.2282457 47.93131,-5.1520701 47.73437,-4.9997239 C 47.537426,-4.8473678 47.438955,-4.6690055 47.438957,-4.4646364 C 47.438955,-4.3345761 47.47983,-4.2175258 47.561581,-4.1134852 C 47.643329,-4.0057206 47.771527,-3.9165394 47.946175,-3.8459415 C 48.046502,-3.8087788 48.341915,-3.7233135 48.832414,-3.5895454 C 49.542144,-3.4000318 50.037286,-3.2448938 50.317839,-3.1241307 C 50.598384,-3.0033614 50.81855,-2.827786 50.978338,-2.597404 C 51.138116,-2.3670167 51.218007,-2.0808938 51.218012,-1.7390344 C 51.218007,-1.4046033 51.120465,-1.0896823 50.925386,-0.79427052 C 50.730298,-0.49885713 50.44882,-0.2703304 50.080951,-0.10868965 C 49.713075,0.052951315 49.296896,0.13377174 48.832414,0.13377188 C 48.063223,0.13377174 47.477043,-0.026011172 47.073871,-0.34557735 C 46.670697,-0.66514284 46.413372,-1.1389178 46.301896,-1.7669036 L 46.301896,-1.7669036 z M 56.005502,-2.6252731 L 57.025513,-2.7144544 C 57.073818,-2.3057046 57.186223,-1.9703463 57.362729,-1.7083784 C 57.539232,-1.446407 57.813278,-1.2346017 58.184869,-1.0729619 C 58.556455,-0.91132001 58.974491,-0.83049958 59.438981,-0.83050041 C 59.851439,-0.83049958 60.215596,-0.89181163 60.531451,-1.0144367 C 60.847296,-1.1370598 61.082325,-1.3052035 61.23654,-1.5188682 C 61.390743,-1.7325299 61.467848,-1.9657015 61.467854,-2.2183836 C 61.467848,-2.4747773 61.39353,-2.6986591 61.244901,-2.8900299 C 61.09626,-3.081395 60.851012,-3.2421069 60.509156,-3.3721661 C 60.289913,-3.457628 59.804991,-3.5904708 59.054386,-3.7706948 C 58.303775,-3.9509113 57.777977,-4.1209129 57.476993,-4.2807001 C 57.086823,-4.4850693 56.796056,-4.7386782 56.604689,-5.0415276 C 56.41332,-5.344367 56.317636,-5.6834412 56.317637,-6.0587513 C 56.317636,-6.4712081 56.434686,-6.8567308 56.668788,-7.2153207 C 56.902887,-7.573896 57.244748,-7.8460844 57.694372,-8.0318865 C 58.143992,-8.2176725 58.643778,-8.3105696 59.193732,-8.3105779 C 59.799417,-8.3105696 60.333575,-8.2130277 60.796208,-8.0179519 C 61.25883,-7.8228601 61.614625,-7.5358082 61.863596,-7.1567955 C 62.112553,-6.7777684 62.246325,-6.348584 62.264911,-5.8692411 L 61.228179,-5.7912075 C 61.172435,-6.3077093 60.983854,-6.6978769 60.662436,-6.9617115 C 60.341007,-7.2255321 59.866303,-7.3574459 59.238323,-7.3574533 C 58.584324,-7.3574459 58.107762,-7.2376087 57.808636,-6.9979414 C 57.509505,-6.75826 57.359941,-6.4693502 57.359943,-6.1312111 C 57.359941,-5.8376503 57.465843,-5.596118 57.677651,-5.4066134 C 57.885738,-5.217098 58.429186,-5.0229432 59.307996,-4.8241483 C 60.186798,-4.6253438 60.7897,-4.4516264 61.116703,-4.3029954 C 61.59233,-4.0837541 61.943481,-3.8059919 62.170156,-3.4697081 C 62.396818,-3.1334173 62.510153,-2.7460366 62.51016,-2.3075649 C 62.510153,-1.8728044 62.385671,-1.4631284 62.136713,-1.0785358 C 61.887743,-0.69394092 61.530089,-0.39481244 61.063751,-0.18114942 C 60.597403,0.032513966 60.072534,0.13934557 59.489145,0.13934571 C 58.74968,0.13934557 58.130057,0.031584995 57.630273,-0.18393633 C 57.130485,-0.39945729 56.738459,-0.72366798 56.454195,-1.1565694 C 56.16993,-1.5894684 56.020365,-2.0790359 56.005502,-2.6252731 L 56.005502,-2.6252731 z M 67.668127,-2.1682192 L 68.654695,-2.0400211 C 68.546929,-1.3600127 68.271025,-0.82771267 67.826981,-0.44311935 C 67.382929,-0.058525138 66.837623,0.13377174 66.191063,0.13377188 C 65.380998,0.13377174 64.729789,-0.13098483 64.237436,-0.66049865 C 63.745081,-1.1900111 63.498903,-1.94898 63.498904,-2.9374075 C 63.498903,-3.5765362 63.604806,-4.1357764 63.816612,-4.6151298 C 64.028417,-5.0944739 64.350769,-5.4539855 64.783671,-5.6936655 C 65.21657,-5.9333342 65.687558,-6.0531714 66.196637,-6.0531775 C 66.839481,-6.0531714 67.365278,-5.8906016 67.77403,-5.5654675 C 68.182772,-5.2403223 68.444742,-4.778624 68.55994,-4.1803712 L 67.58452,-4.0298778 C 67.491618,-4.4274731 67.327191,-4.7266016 67.091236,-4.9272642 C 66.855274,-5.1279169 66.57008,-5.2282457 66.235654,-5.2282509 C 65.73029,-5.2282457 65.319685,-5.0470964 65.003837,-4.6848026 C 64.687986,-4.3224995 64.530061,-3.7493247 64.530062,-2.9652766 C 64.530061,-2.170075 64.682412,-1.5922553 64.987116,-1.231816 C 65.291816,-0.87137428 65.689416,-0.69115401 66.179915,-0.6911547 C 66.573796,-0.69115401 66.902651,-0.81192017 67.166483,-1.0534535 C 67.430306,-1.2949848 67.597521,-1.666573 67.668127,-2.1682192 L 67.668127,-2.1682192 z M 70.350806,-7.0174498 L 70.350806,-8.1712322 L 71.354096,-8.1712322 L 71.354096,-7.0174498 L 70.350806,-7.0174498 z M 70.350806,0 L 70.350806,-5.9194056 L 71.354096,-5.9194056 L 71.354096,0 L 70.350806,0 z M 77.395041,-1.9062493 L 78.431773,-1.7780512 C 78.268268,-1.1723607 77.965424,-0.70230166 77.523239,-0.36787266 C 77.081044,-0.033442936 76.51623,0.13377174 75.828795,0.13377188 C 74.962991,0.13377174 74.276482,-0.13284277 73.769265,-0.66607247 C 73.262046,-1.1993008 73.008437,-1.9471221 73.008438,-2.9095383 C 73.008437,-3.9053917 73.264833,-4.6782952 73.777626,-5.2282509 C 74.290417,-5.7781962 74.955559,-6.0531714 75.773057,-6.0531775 C 76.564536,-6.0531714 77.2111,-5.78377 77.712749,-5.2449724 C 78.214388,-4.7061643 78.46521,-3.9481244 78.465216,-2.9708505 C 78.46521,-2.9113934 78.463352,-2.8222122 78.459642,-2.7033067 L 74.04517,-2.7033067 C 74.082327,-2.0530247 74.266263,-1.5550965 74.596979,-1.2095207 C 74.92769,-0.86394251 75.340153,-0.69115401 75.834369,-0.6911547 C 76.202238,-0.69115401 76.51623,-0.78776694 76.776346,-0.98099377 C 77.036453,-1.1742186 77.242685,-1.4826368 77.395041,-1.9062493 L 77.395041,-1.9062493 z M 74.100908,-3.5282333 L 77.406188,-3.5282333 C 77.361593,-4.0261579 77.235253,-4.399604 77.027168,-4.6485728 C 76.707598,-5.0350198 76.293277,-5.2282457 75.784204,-5.2282509 C 75.323432,-5.2282457 74.936051,-5.0740366 74.622061,-4.7656231 C 74.308067,-4.4572002 74.13435,-4.0447373 74.100908,-3.5282333 L 74.100908,-3.5282333 z M 79.881495,0 L 79.881495,-5.9194056 L 80.784455,-5.9194056 L 80.784455,-5.0777575 C 81.219212,-5.7280318 81.847196,-6.0531714 82.668409,-6.0531775 C 83.02513,-6.0531714 83.353057,-5.9890725 83.65219,-5.8608804 C 83.951314,-5.7326766 84.175196,-5.564533 84.323836,-5.3564489 C 84.472466,-5.1483542 84.576511,-4.9012481 84.635971,-4.6151298 C 84.673124,-4.4293311 84.691703,-4.1041914 84.691709,-3.6397098 L 84.691709,0 L 83.68842,0 L 83.68842,-3.600693 C 83.688415,-4.0094364 83.649399,-4.3150677 83.571369,-4.5175878 C 83.493331,-4.7200988 83.354915,-4.8817397 83.156119,-5.0025108 C 82.957316,-5.123272 82.724144,-5.1836551 82.456604,-5.1836603 C 82.029274,-5.1836551 81.660473,-5.0480254 81.350199,-4.7767708 C 81.039921,-4.5055067 80.884782,-3.990857 80.884784,-3.2328204 L 80.884784,0 L 79.881495,0 z M 90.462,-2.1682192 L 91.448568,-2.0400211 C 91.340802,-1.3600127 91.064897,-0.82771267 90.620854,-0.44311935 C 90.176802,-0.058525138 89.631496,0.13377174 88.984936,0.13377188 C 88.17487,0.13377174 87.523662,-0.13098483 87.031309,-0.66049865 C 86.538953,-1.1900111 86.292776,-1.94898 86.292777,-2.9374075 C 86.292776,-3.5765362 86.398679,-4.1357764 86.610485,-4.6151298 C 86.822289,-5.0944739 87.144642,-5.4539855 87.577544,-5.6936655 C 88.010443,-5.9333342 88.481431,-6.0531714 88.99051,-6.0531775 C 89.633354,-6.0531714 90.159151,-5.8906016 90.567903,-5.5654675 C 90.976645,-5.2403223 91.238615,-4.778624 91.353813,-4.1803712 L 90.378393,-4.0298778 C 90.285491,-4.4274731 90.121063,-4.7266016 89.885109,-4.9272642 C 89.649146,-5.1279169 89.363953,-5.2282457 89.029526,-5.2282509 C 88.524163,-5.2282457 88.113558,-5.0470964 87.79771,-4.6848026 C 87.481858,-4.3224995 87.323933,-3.7493247 87.323935,-2.9652766 C 87.323933,-2.170075 87.476285,-1.5922553 87.780989,-1.231816 C 88.085689,-0.87137428 88.483289,-0.69115401 88.973788,-0.6911547 C 89.367668,-0.69115401 89.696524,-0.81192017 89.960356,-1.0534535 C 90.224179,-1.2949848 90.391394,-1.666573 90.462,-2.1682192 L 90.462,-2.1682192 z M 97.191275,-1.9062493 L 98.228007,-1.7780512 C 98.064502,-1.1723607 97.761658,-0.70230166 97.319473,-0.36787266 C 96.877278,-0.033442936 96.312464,0.13377174 95.625029,0.13377188 C 94.759225,0.13377174 94.072716,-0.13284277 93.565499,-0.66607247 C 93.05828,-1.1993008 92.804672,-1.9471221 92.804672,-2.9095383 C 92.804672,-3.9053917 93.061067,-4.6782952 93.57386,-5.2282509 C 94.086651,-5.7781962 94.751794,-6.0531714 95.569291,-6.0531775 C 96.36077,-6.0531714 97.007334,-5.78377 97.508983,-5.2449724 C 98.010622,-4.7061643 98.261444,-3.9481244 98.26145,-2.9708505 C 98.261444,-2.9113934 98.259586,-2.8222122 98.255876,-2.7033067 L 93.841404,-2.7033067 C 93.878561,-2.0530247 94.062498,-1.5550965 94.393213,-1.2095207 C 94.723924,-0.86394251 95.136387,-0.69115401 95.630603,-0.6911547 C 95.998472,-0.69115401 96.312464,-0.78776694 96.57258,-0.98099377 C 96.832687,-1.1742186 97.038919,-1.4826368 97.191275,-1.9062493 L 97.191275,-1.9062493 z M 93.897142,-3.5282333 L 97.202422,-3.5282333 C 97.157827,-4.0261579 97.031487,-4.399604 96.823402,-4.6485728 C 96.503832,-5.0350198 96.089511,-5.2282457 95.580438,-5.2282509 C 95.119666,-5.2282457 94.732285,-5.0740366 94.418295,-4.7656231 C 94.104301,-4.4572002 93.930584,-4.0447373 93.897142,-3.5282333 L 93.897142,-3.5282333 z M 107.22866,-0.96427229 C 106.89794,-0.59639903 106.5375,-0.3204948 106.14733,-0.13655879 C 105.75716,0.047377493 105.33541,0.13934557 104.88207,0.13934571 C 104.046,0.13934557 103.38271,-0.14306145 102.89222,-0.70787619 C 102.49462,-1.1686448 102.29582,-1.6832944 102.29582,-2.2518266 C 102.29582,-2.7571843 102.45839,-3.2133088 102.78353,-3.6202014 C 103.10867,-4.0270869 103.59452,-4.3847405 104.24108,-4.6931634 C 103.87321,-5.1167692 103.62796,-5.4604883 103.50534,-5.7243216 C 103.38271,-5.9881435 103.3214,-6.2426814 103.3214,-6.4879361 C 103.3214,-6.978426 103.5137,-7.4048234 103.89829,-7.7671297 C 104.28288,-8.1294204 104.76688,-8.3105696 105.35028,-8.3105779 C 105.90765,-8.3105696 106.36378,-8.139639 106.71865,-7.7977857 C 107.07351,-7.4559168 107.25095,-7.0453118 107.25095,-6.5659697 C 107.25095,-5.7893438 106.7363,-5.1260589 105.707,-4.576113 L 107.17292,-2.7088805 C 107.34013,-3.0358754 107.47018,-3.4148954 107.56309,-3.8459415 L 108.60539,-3.6229884 C 108.42702,-2.9095354 108.18549,-2.3224261 107.88079,-1.8616586 C 108.25609,-1.3637286 108.68156,-0.94569191 109.1572,-0.60754728 L 108.48277,0.18951016 C 108.07773,-0.070601754 107.65969,-0.45519552 107.22866,-0.96427229 L 107.22866,-0.96427229 z M 105.18863,-5.2226771 C 105.62339,-5.4790677 105.90487,-5.7038785 106.03307,-5.8971103 C 106.16126,-6.0903302 106.22536,-6.3039934 106.22537,-6.5381005 C 106.22536,-6.8167851 106.13711,-7.0443829 105.96061,-7.2208945 C 105.7841,-7.3973916 105.56394,-7.4856438 105.30011,-7.4856513 C 105.02885,-7.4856438 104.80311,-7.3983206 104.62289,-7.2236814 C 104.44267,-7.0490277 104.35256,-6.8353645 104.35256,-6.5826912 C 104.35256,-6.4563446 104.38507,-6.3235018 104.4501,-6.1841624 C 104.51513,-6.0448107 104.61267,-5.8971044 104.74273,-5.7410431 L 105.18863,-5.2226771 z M 106.59881,-1.7557559 L 104.75945,-4.0354516 C 104.21693,-3.7121659 103.85091,-3.4121084 103.66141,-3.1352784 C 103.47189,-2.8584421 103.37714,-2.5843958 103.37714,-2.3131387 C 103.37714,-1.9824229 103.50905,-1.6387039 103.77288,-1.2819805 C 104.03671,-0.92525456 104.41015,-0.74689224 104.89322,-0.74689298 C 105.1942,-0.74689224 105.50541,-0.84071825 105.82684,-1.0283713 C 106.14826,-1.2160223 106.40558,-1.4584836 106.59881,-1.7557559 L 106.59881,-1.7557559 z M 114.48506,0 L 114.48506,-7.2069599 L 111.7929,-7.2069599 L 111.7929,-8.1712322 L 118.26969,-8.1712322 L 118.26969,-7.2069599 L 115.56639,-7.2069599 L 115.56639,0 L 114.48506,0 z M 122.33211,-1.9062493 L 123.36885,-1.7780512 C 123.20534,-1.1723607 122.9025,-0.70230166 122.46031,-0.36787266 C 122.01812,-0.033442936 121.4533,0.13377174 120.76587,0.13377188 C 119.90006,0.13377174 119.21355,-0.13284277 118.70634,-0.66607247 C 118.19912,-1.1993008 117.94551,-1.9471221 117.94551,-2.9095383 C 117.94551,-3.9053917 118.20191,-4.6782952 118.7147,-5.2282509 C 119.22749,-5.7781962 119.89263,-6.0531714 120.71013,-6.0531775 C 121.50161,-6.0531714 122.14817,-5.78377 122.64982,-5.2449724 C 123.15146,-4.7061643 123.40228,-3.9481244 123.40229,-2.9708505 C 123.40228,-2.9113934 123.40042,-2.8222122 123.39671,-2.7033067 L 118.98224,-2.7033067 C 119.0194,-2.0530247 119.20334,-1.5550965 119.53405,-1.2095207 C 119.86476,-0.86394251 120.27723,-0.69115401 120.77144,-0.6911547 C 121.13931,-0.69115401 121.4533,-0.78776694 121.71342,-0.98099377 C 121.97353,-1.1742186 122.17976,-1.4826368 122.33211,-1.9062493 L 122.33211,-1.9062493 z M 119.03798,-3.5282333 L 122.34326,-3.5282333 C 122.29867,-4.0261579 122.17233,-4.399604 121.96424,-4.6485728 C 121.64467,-5.0350198 121.23035,-5.2282457 120.72128,-5.2282509 C 120.2605,-5.2282457 119.87312,-5.0740366 119.55913,-4.7656231 C 119.24514,-4.4572002 119.07142,-4.0447373 119.03798,-3.5282333 L 119.03798,-3.5282333 z M 129.04081,-2.1682192 L 130.02738,-2.0400211 C 129.91961,-1.3600127 129.64371,-0.82771267 129.19967,-0.44311935 C 128.75561,-0.058525138 128.21031,0.13377174 127.56375,0.13377188 C 126.75368,0.13377174 126.10247,-0.13098483 125.61012,-0.66049865 C 125.11777,-1.1900111 124.87159,-1.94898 124.87159,-2.9374075 C 124.87159,-3.5765362 124.97749,-4.1357764 125.1893,-4.6151298 C 125.4011,-5.0944739 125.72345,-5.4539855 126.15636,-5.6936655 C 126.58925,-5.9333342 127.06024,-6.0531714 127.56932,-6.0531775 C 128.21217,-6.0531714 128.73796,-5.8906016 129.14671,-5.5654675 C 129.55546,-5.2403223 129.81743,-4.778624 129.93262,-4.1803712 L 128.9572,-4.0298778 C 128.8643,-4.4274731 128.69988,-4.7266016 128.46392,-4.9272642 C 128.22796,-5.1279169 127.94276,-5.2282457 127.60834,-5.2282509 C 127.10297,-5.2282457 126.69237,-5.0470964 126.37652,-4.6848026 C 126.06067,-4.3224995 125.90275,-3.7493247 125.90275,-2.9652766 C 125.90275,-2.170075 126.0551,-1.5922553 126.3598,-1.231816 C 126.6645,-0.87137428 127.0621,-0.69115401 127.5526,-0.6911547 C 127.94648,-0.69115401 128.27534,-0.81192017 128.53917,-1.0534535 C 128.80299,-1.2949848 128.97021,-1.666573 129.04081,-2.1682192 L 129.04081,-2.1682192 z M 131.71792,0 L 131.71792,-8.1712322 L 132.72121,-8.1712322 L 132.72121,-5.2393985 C 133.18941,-5.781912 133.78023,-6.0531714 134.49369,-6.0531775 C 134.93216,-6.0531714 135.31304,-5.9667772 135.63632,-5.7939945 C 135.9596,-5.6212002 136.19091,-5.3824548 136.33026,-5.0777575 C 136.4696,-4.7730501 136.53928,-4.3308602 136.53928,-3.7511864 L 136.53928,0 L 135.53599,0 L 135.53599,-3.7511864 C 135.53599,-4.2528267 135.4273,-4.6179121 135.20992,-4.8464437 C 134.99254,-5.0749655 134.68505,-5.1892289 134.28746,-5.1892341 C 133.99018,-5.1892289 133.71056,-5.1121244 133.44859,-4.9579202 C 133.18662,-4.8037062 132.9999,-4.5946878 132.88842,-4.3308645 C 132.77695,-4.0670326 132.72121,-3.7028762 132.72121,-3.2383942 L 132.72121,0 L 131.71792,0 z M 138.43576,0 L 138.43576,-5.9194056 L 139.33872,-5.9194056 L 139.33872,-5.0777575 C 139.77347,-5.7280318 140.40146,-6.0531714 141.22267,-6.0531775 C 141.57939,-6.0531714 141.90732,-5.9890725 142.20645,-5.8608804 C 142.50557,-5.7326766 142.72946,-5.564533 142.8781,-5.3564489 C 143.02673,-5.1483542 143.13077,-4.9012481 143.19023,-4.6151298 C 143.22738,-4.4293311 143.24596,-4.1041914 143.24597,-3.6397098 L 143.24597,0 L 142.24268,0 L 142.24268,-3.600693 C 142.24268,-4.0094364 142.20366,-4.3150677 142.12563,-4.5175878 C 142.04759,-4.7200988 141.90918,-4.8817397 141.71038,-5.0025108 C 141.51158,-5.123272 141.2784,-5.1836551 141.01086,-5.1836603 C 140.58353,-5.1836551 140.21473,-5.0480254 139.90446,-4.7767708 C 139.59418,-4.5055067 139.43904,-3.990857 139.43904,-3.2328204 L 139.43904,0 L 138.43576,0 z M 144.78016,-2.9597028 C 144.78016,-4.055885 145.08486,-4.8678051 145.69427,-5.3954657 C 146.20334,-5.8339344 146.82389,-6.0531714 147.55593,-6.0531775 C 148.3697,-6.0531714 149.03484,-5.7865569 149.55136,-5.2533331 C 150.06786,-4.7200988 150.32611,-3.9834253 150.32612,-3.0433102 C 150.32611,-2.2815514 150.21185,-1.6823655 149.98333,-1.2457506 C 149.75479,-0.80913326 149.42222,-0.47005904 148.98561,-0.22852696 C 148.54899,0.013005586 148.07243,0.13377174 147.55593,0.13377188 C 146.72728,0.13377174 146.05749,-0.1319138 145.54656,-0.66328556 C 145.03563,-1.194656 144.78016,-1.9601276 144.78016,-2.9597028 L 144.78016,-2.9597028 z M 145.81132,-2.9597028 C 145.81132,-2.20166 145.97667,-1.634059 146.30739,-1.2568983 C 146.6381,-0.87973501 147.05428,-0.69115401 147.55593,-0.6911547 C 148.05385,-0.69115401 148.46817,-0.88066398 148.79889,-1.2596852 C 149.1296,-1.6387039 149.29495,-2.2165235 149.29496,-2.9931458 C 149.29495,-3.7251715 149.12867,-4.2797668 148.7961,-4.6569335 C 148.46353,-5.0340908 148.05013,-5.2226718 147.55593,-5.2226771 C 147.05428,-5.2226718 146.6381,-5.0350198 146.30739,-4.6597204 C 145.97667,-4.2844117 145.81132,-3.7177397 145.81132,-2.9597028 L 145.81132,-2.9597028 z M 152.14938,0 L 152.14938,-8.1712322 L 153.15267,-8.1712322 L 153.15267,0 L 152.14938,0 z M 154.79586,-2.9597028 C 154.79586,-4.055885 155.10056,-4.8678051 155.70997,-5.3954657 C 156.21904,-5.8339344 156.83959,-6.0531714 157.57163,-6.0531775 C 158.3854,-6.0531714 159.05054,-5.7865569 159.56706,-5.2533331 C 160.08356,-4.7200988 160.34181,-3.9834253 160.34182,-3.0433102 C 160.34181,-2.2815514 160.22755,-1.6823655 159.99903,-1.2457506 C 159.7705,-0.80913326 159.43792,-0.47005904 159.00131,-0.22852696 C 158.56469,0.013005586 158.08813,0.13377174 157.57163,0.13377188 C 156.74298,0.13377174 156.07319,-0.1319138 155.56226,-0.66328556 C 155.05133,-1.194656 154.79586,-1.9601276 154.79586,-2.9597028 L 154.79586,-2.9597028 z M 155.82702,-2.9597028 C 155.82702,-2.20166 155.99237,-1.634059 156.32309,-1.2568983 C 156.6538,-0.87973501 157.06998,-0.69115401 157.57163,-0.6911547 C 158.06955,-0.69115401 158.48387,-0.88066398 158.81459,-1.2596852 C 159.1453,-1.6387039 159.31066,-2.2165235 159.31066,-2.9931458 C 159.31066,-3.7251715 159.14437,-4.2797668 158.8118,-4.6569335 C 158.47923,-5.0340908 158.06584,-5.2226718 157.57163,-5.2226771 C 157.06998,-5.2226718 156.6538,-5.0350198 156.32309,-4.6597204 C 155.99237,-4.2844117 155.82702,-3.7177397 155.82702,-2.9597028 L 155.82702,-2.9597028 z M 162.06394,0.49049689 L 163.03936,0.63541642 C 163.08023,0.93640221 163.19357,1.1556392 163.37936,1.2931282 C 163.62832,1.4789209 163.96833,1.571818 164.39937,1.5718196 C 164.86385,1.571818 165.22244,1.4789209 165.47512,1.2931282 C 165.7278,1.1073328 165.89873,0.84722105 165.98791,0.5127922 C 166.03993,0.30841819 166.06408,-0.12076616 166.06037,-0.77476213 C 165.62189,-0.25825378 165.07566,0 164.42167,0 C 163.60789,0 162.97804,-0.29355466 162.53214,-0.88066486 C 162.08623,-1.4677733 161.86328,-2.1719329 161.86328,-2.9931458 C 161.86328,-3.5579568 161.96547,-4.0791092 162.16984,-4.5566046 C 162.37421,-5.0340908 162.67055,-5.4028921 163.05887,-5.6630095 C 163.44717,-5.9231156 163.9033,-6.0531714 164.42724,-6.0531775 C 165.12582,-6.0531714 165.70179,-5.7707644 166.15513,-5.2059556 L 166.15513,-5.9194056 L 167.08038,-5.9194056 L 167.08038,-0.80263127 C 167.08038,0.11890822 166.98655,0.77197444 166.7989,1.1565694 C 166.61125,1.541162 166.31398,1.8449353 165.90709,2.0678903 C 165.5002,2.2908411 164.99948,2.4023176 164.40495,2.40232 C 163.69892,2.4023176 163.12854,2.2434636 162.69378,1.9257577 C 162.25902,1.6080478 162.04907,1.1296281 162.06394,0.49049689 L 162.06394,0.49049689 z M 162.89444,-3.0656055 C 162.89444,-2.2889832 163.04865,-1.7223112 163.35707,-1.3655879 C 163.66548,-1.0088619 164.05193,-0.83049958 164.51642,-0.83050041 C 164.97719,-0.83049958 165.36364,-1.0079329 165.67578,-1.362801 C 165.98791,-1.7176664 166.14398,-2.2741196 166.14398,-3.0321626 C 166.14398,-3.7567565 165.98326,-4.3029911 165.66184,-4.6708681 C 165.34042,-5.0387357 164.95304,-5.2226718 164.4997,-5.2226771 C 164.05379,-5.2226718 163.67477,-5.0415226 163.36264,-4.6792288 C 163.0505,-4.3169257 162.89444,-3.7790518 162.89444,-3.0656055 L 162.89444,-3.0656055 z M 168.92112,2.2796957 L 168.80964,1.3377188 C 169.02888,1.3971715 169.22025,1.4268986 169.38375,1.4269 C 169.6067,1.4268986 169.78506,1.3897398 169.91883,1.3154235 C 170.0526,1.2411045 170.16222,1.1370598 170.24769,1.0032891 C 170.31086,0.90295927 170.41304,0.65399519 170.55425,0.2563961 C 170.57283,0.20065762 170.60255,0.11890822 170.64343,0.011147656 L 168.39718,-5.9194056 L 169.4785,-5.9194056 L 170.71032,-2.4915012 C 170.8701,-2.0567406 171.01316,-1.5996871 171.1395,-1.1203395 C 171.25469,-1.5811077 171.39218,-2.0307294 171.55196,-2.4692059 L 172.81722,-5.9194056 L 173.82051,-5.9194056 L 171.56869,0.10032891 C 171.32715,0.75060812 171.1395,1.1983719 171.00573,1.4436215 C 170.82736,1.7743335 170.62299,2.0167948 170.39261,2.1710061 C 170.16222,2.325213 169.88725,2.4023176 169.56768,2.40232 C 169.37445,2.4023176 169.15893,2.3614429 168.92112,2.2796957 L 168.92112,2.2796957 z"
     transform="matrix(0,1,1,0,154.14,565.6105)"
     id="text79" /></g>
</g></g></svg>